<svg width="250" height="250" viewBox="0 0 250 250" fill="none" xmlns="http://www.w3.org/2000/svg">
<path d="M0.72644 0.673645H250.726V250.674H0.72644V0.673645Z" fill="white"/>
<path d="M182.128 60.2054C188.06 60.5059 192.776 65.4103 192.776 71.4164V87.289L184.045 96.02V71.4164C184.045 70.0387 182.929 68.9219 181.551 68.9219H177.809V98.6449L167.831 90.6703L157.852 98.6449V68.9219H59.3162C57.9385 68.9219 56.8216 70.0387 56.8216 71.4164V92.6204H151.616V101.351H56.8216V179.931C56.8216 181.309 57.9385 182.425 59.3162 182.425H181.551C182.929 182.425 184.045 181.309 184.045 179.931V161.28L192.776 152.549V179.931C192.776 186.131 187.751 191.156 181.551 191.156H59.3162C53.3101 191.156 48.4057 186.44 48.1052 180.508L48.0906 179.931V71.4164C48.0906 65.4103 52.8074 60.5059 58.7389 60.2054L59.3162 60.1908H181.551L182.128 60.2054Z" fill="#0C68A6"/>
<path d="M114.821 159.974C117.232 159.974 119.186 161.929 119.186 164.34C119.186 166.751 117.232 168.705 114.821 168.705H76.1547C73.7437 168.705 71.7891 166.751 71.7891 164.34C71.7891 161.929 73.7437 159.974 76.1547 159.974H114.821Z" fill="#0C68A6"/>
<path d="M131.036 137.523C133.447 137.523 135.401 139.477 135.401 141.888C135.401 144.299 133.447 146.254 131.036 146.254H76.1547C73.7437 146.254 71.7891 144.299 71.7891 141.888C71.7891 139.477 73.7437 137.523 76.1547 137.523H131.036Z" fill="#0C68A6"/>
<path d="M146.003 115.072C148.414 115.072 150.369 117.026 150.369 119.437C150.369 121.848 148.414 123.803 146.003 123.803H76.1547C73.7437 123.803 71.7891 121.848 71.7891 119.437C71.7891 117.026 73.7437 115.072 76.1547 115.072H146.003Z" fill="#0C68A6"/>
<path d="M68.6709 76.4056C71.0819 76.4056 73.0364 78.3601 73.0364 80.7711C73.0364 83.1821 71.0819 85.1367 68.6709 85.1367C66.2599 85.1367 64.3054 83.1821 64.3054 80.7711C64.3054 78.3601 66.2599 76.4056 68.6709 76.4056Z" fill="#0C68A6"/>
<path d="M83.6384 76.4056C86.0494 76.4056 88.0039 78.3601 88.0039 80.7711C88.0039 83.1821 86.0494 85.1367 83.6384 85.1367C81.2274 85.1367 79.2729 83.1821 79.2729 80.7711C79.2729 78.3601 81.2274 76.4056 83.6384 76.4056Z" fill="#0C68A6"/>
<path d="M98.6059 76.4056C101.017 76.4056 102.971 78.3601 102.971 80.7711C102.971 83.1821 101.017 85.1367 98.6059 85.1367C96.1949 85.1367 94.2404 83.1821 94.2404 80.7711C94.2404 78.3601 96.1949 76.4056 98.6059 76.4056Z" fill="#0C68A6"/>
<path d="M201.642 91.2547L221.684 111.296L170.015 162.965L170.015 162.967L166.945 166.037C166.55 166.432 166.07 166.735 165.543 166.921L142.395 175.074C139.432 176.118 136.579 173.266 137.623 170.302L145.777 147.155C145.963 146.627 146.264 146.147 146.66 145.752L201.411 90.9981C201.483 91.0859 201.56 91.1728 201.642 91.2547ZM149.535 150.473C149.21 150.149 148.658 150.276 148.505 150.708L142.298 168.33C141.846 169.614 143.082 170.85 144.366 170.398L161.987 164.19C162.42 164.038 162.546 163.485 162.222 163.16L149.535 150.473ZM231.411 89.2229C234.821 92.6326 234.821 98.1609 231.411 101.57L226.432 106.548L206.39 86.5055C206.308 86.4238 206.223 86.3462 206.135 86.2747L211.127 81.2843C214.537 77.8755 220.065 77.8751 223.474 81.2843L231.411 89.2229Z" fill="#0C68A6"/>
</svg>
