<svg width="250" height="250" viewBox="0 0 250 250" fill="none" xmlns="http://www.w3.org/2000/svg">
<path d="M0 0.221565H250V250.222H0V0.221565Z" fill="white"/>
<path d="M174.463 41.0117C179.218 41.2526 183 45.1847 183 50V62.7256L176 69.7256V50C176 48.8954 175.105 48 174 48H171V71.8301L163 65.4365L155 71.8301V48H76C74.8954 48 74 48.8954 74 50V67H150V74H74V137C74 138.105 74.8954 139 76 139H174C175.105 139 176 138.105 176 137V122.047L183 115.047V137C183 141.971 178.971 146 174 146H76C71.1847 146 67.2526 142.218 67.0117 137.463L67 137V50C67 45.1847 70.7817 41.2526 75.5371 41.0117L76 41H174L174.463 41.0117Z" fill="#0C68A6"/>
<path d="M120.5 121C122.433 121 124 122.567 124 124.5C124 126.433 122.433 128 120.5 128H89.5C87.567 128 86 126.433 86 124.5C86 122.567 87.567 121 89.5 121H120.5Z" fill="#0C68A6"/>
<path d="M133.5 103C135.433 103 137 104.567 137 106.5C137 108.433 135.433 110 133.5 110H89.5C87.567 110 86 108.433 86 106.5C86 104.567 87.567 103 89.5 103H133.5Z" fill="#0C68A6"/>
<path d="M145.5 85C147.433 85 149 86.567 149 88.5C149 90.433 147.433 92 145.5 92H89.5C87.567 92 86 90.433 86 88.5C86 86.567 87.567 85 89.5 85H145.5Z" fill="#0C68A6"/>
<path d="M83.5 54C85.433 54 87 55.567 87 57.5C87 59.433 85.433 61 83.5 61C81.567 61 80 59.433 80 57.5C80 55.567 81.567 54 83.5 54Z" fill="#0C68A6"/>
<path d="M95.5 54C97.433 54 99 55.567 99 57.5C99 59.433 97.433 61 95.5 61C93.567 61 92 59.433 92 57.5C92 55.567 93.567 54 95.5 54Z" fill="#0C68A6"/>
<path d="M107.5 54C109.433 54 111 55.567 111 57.5C111 59.433 109.433 61 107.5 61C105.567 61 104 59.433 104 57.5C104 55.567 105.567 54 107.5 54Z" fill="#0C68A6"/>
<path d="M18.1094 192.084V159.357H32.2358C34.6648 159.357 36.7901 159.836 38.6119 160.795C40.4336 161.754 41.8505 163.101 42.8626 164.838C43.8746 166.574 44.3807 168.604 44.3807 170.926C44.3807 173.27 43.8587 175.3 42.8146 177.015C41.7813 178.73 40.3271 180.051 38.4521 180.978C36.5877 181.905 34.4091 182.368 31.9162 182.368H23.4787V175.465H30.1264C31.1705 175.465 32.06 175.284 32.7951 174.921C33.5408 174.549 34.1108 174.021 34.505 173.339C34.9098 172.658 35.1122 171.853 35.1122 170.926C35.1122 169.989 34.9098 169.19 34.505 168.529C34.1108 167.858 33.5408 167.347 32.7951 166.995C32.06 166.633 31.1705 166.452 30.1264 166.452H26.9943V192.084H18.1094Z" fill="#0C68A6"/>
<path d="M52.1593 192.468C50.5933 192.468 49.2083 192.212 48.0045 191.701C46.8113 191.179 45.8738 190.39 45.192 189.335C44.5102 188.281 44.1693 186.938 44.1693 185.308C44.1693 183.966 44.3983 182.821 44.8564 181.873C45.3145 180.914 45.9537 180.131 46.774 179.524C47.5943 178.916 48.5478 178.453 49.6345 178.133C50.7318 177.814 51.9143 177.606 53.182 177.51C54.5563 177.404 55.659 177.276 56.4899 177.127C57.3316 176.967 57.9388 176.748 58.3117 176.471C58.6845 176.184 58.871 175.806 58.871 175.337V175.273C58.871 174.634 58.6259 174.144 58.1359 173.803C57.6458 173.462 57.0173 173.291 56.2502 173.291C55.4086 173.291 54.7215 173.478 54.1888 173.851C53.6668 174.213 53.3525 174.772 53.246 175.529H45.1281C45.2346 174.037 45.7087 172.663 46.5503 171.406C47.4026 170.138 48.6437 169.126 50.2737 168.37C51.9036 167.603 53.9384 167.219 56.3781 167.219C58.1359 167.219 59.7126 167.427 61.1082 167.842C62.5038 168.247 63.6916 168.817 64.6718 169.552C65.6519 170.277 66.3976 171.129 66.909 172.109C67.431 173.078 67.692 174.133 67.692 175.273V192.084H59.4463V188.632H59.2545C58.7644 189.549 58.1678 190.289 57.4647 190.854C56.7722 191.418 55.9786 191.828 55.0837 192.084C54.1995 192.34 53.2247 192.468 52.1593 192.468ZM55.0357 186.906C55.7069 186.906 56.3355 186.768 56.9214 186.491C57.518 186.214 58.0027 185.815 58.3756 185.293C58.7485 184.77 58.9349 184.137 58.9349 183.391V181.345C58.7005 181.441 58.4502 181.532 58.1838 181.617C57.9281 181.702 57.6512 181.782 57.3529 181.857C57.0652 181.931 56.7563 182.001 56.426 182.065C56.1064 182.128 55.7708 182.187 55.4193 182.24C54.7374 182.347 54.1781 182.523 53.7414 182.768C53.3152 183.002 52.9956 183.295 52.7825 183.647C52.5801 183.987 52.4789 184.371 52.4789 184.797C52.4789 185.479 52.7186 186.001 53.198 186.363C53.6774 186.725 54.29 186.906 55.0357 186.906Z" fill="#0C68A6"/>
<path d="M82.382 201.8C79.9211 201.8 77.8117 201.448 76.0539 200.745C74.3068 200.053 72.9484 199.094 71.979 197.869C71.0202 196.654 70.4822 195.259 70.365 193.682H78.8664C78.9516 194.204 79.1647 194.625 79.5056 194.944C79.8465 195.264 80.2833 195.493 80.816 195.632C81.3593 195.781 81.9665 195.855 82.6377 195.855C83.7776 195.855 84.7205 195.578 85.4662 195.024C86.2226 194.47 86.6008 193.469 86.6008 192.02V187.865H86.3451C86.0255 188.696 85.5354 189.405 84.8749 189.991C84.2144 190.566 83.4207 191.008 82.4939 191.317C81.567 191.615 80.5496 191.764 79.4417 191.764C77.6945 191.764 76.0859 191.36 74.6157 190.55C73.1562 189.74 71.9843 188.457 71.1001 186.699C70.2265 184.941 69.7897 182.645 69.7897 179.811C69.7897 176.85 70.2478 174.442 71.164 172.588C72.0908 170.735 73.284 169.376 74.7435 168.513C76.2137 167.65 77.7585 167.219 79.3778 167.219C80.5923 167.219 81.6576 167.432 82.5738 167.858C83.49 168.274 84.257 168.833 84.8749 169.536C85.4928 170.229 85.9616 170.99 86.2812 171.821H86.4729V167.539H95.294V192.02C95.294 194.098 94.756 195.861 93.68 197.31C92.6146 198.769 91.1125 199.882 89.1736 200.649C87.2347 201.416 84.9708 201.8 82.382 201.8ZM82.7016 185.5C83.5113 185.5 84.2038 185.277 84.779 184.829C85.365 184.371 85.8124 183.721 86.1214 182.879C86.441 182.027 86.6008 181.004 86.6008 179.811C86.6008 178.597 86.441 177.558 86.1214 176.695C85.8124 175.822 85.365 175.156 84.779 174.698C84.2038 174.229 83.5113 173.995 82.7016 173.995C81.892 173.995 81.1995 174.229 80.6242 174.698C80.0596 175.156 79.6228 175.822 79.3139 176.695C79.0156 177.558 78.8664 178.597 78.8664 179.811C78.8664 181.026 79.0156 182.059 79.3139 182.911C79.6228 183.753 80.0596 184.398 80.6242 184.845C81.1995 185.282 81.892 185.5 82.7016 185.5Z" fill="#0C68A6"/>
<path d="M110.192 192.531C107.571 192.531 105.312 192.031 103.416 191.029C101.531 190.017 100.076 188.568 99.0536 186.683C98.0415 184.786 97.5355 182.517 97.5355 179.875C97.5355 177.34 98.0469 175.124 99.0696 173.228C100.092 171.331 101.536 169.856 103.4 168.801C105.265 167.746 107.464 167.219 110 167.219C111.854 167.219 113.532 167.507 115.034 168.082C116.536 168.657 117.82 169.493 118.885 170.591C119.95 171.677 120.771 172.998 121.346 174.554C121.921 176.109 122.209 177.862 122.209 179.811V181.857H100.284V176.999H114.091C114.08 176.296 113.899 175.678 113.548 175.145C113.207 174.602 112.743 174.181 112.157 173.883C111.582 173.574 110.927 173.419 110.192 173.419C109.478 173.419 108.823 173.574 108.226 173.883C107.63 174.181 107.15 174.596 106.788 175.129C106.436 175.662 106.25 176.285 106.229 176.999V182.24C106.229 183.029 106.394 183.732 106.724 184.35C107.054 184.968 107.528 185.452 108.146 185.804C108.764 186.155 109.51 186.331 110.383 186.331C110.991 186.331 111.545 186.246 112.045 186.076C112.557 185.905 112.994 185.66 113.356 185.34C113.718 185.01 113.984 184.616 114.155 184.158H122.209C121.932 185.862 121.277 187.343 120.243 188.6C119.21 189.847 117.841 190.816 116.136 191.509C114.442 192.191 112.461 192.531 110.192 192.531Z" fill="#0C68A6"/>
<path d="M124.33 159.357H135.389L142.995 177.894H143.379L150.985 159.357H162.044V192.084H153.35V173.164H153.095L145.808 191.828H140.566L133.279 173.036H133.024V192.084H124.33V159.357Z" fill="#0C68A6"/>
<path d="M171.872 192.468C170.306 192.468 168.921 192.212 167.717 191.701C166.524 191.179 165.586 190.39 164.904 189.335C164.222 188.281 163.882 186.938 163.882 185.308C163.882 183.966 164.111 182.821 164.569 181.873C165.027 180.914 165.666 180.131 166.486 179.524C167.307 178.916 168.26 178.453 169.347 178.133C170.444 177.814 171.627 177.606 172.894 177.51C174.269 177.404 175.371 177.276 176.202 177.127C177.044 176.967 177.651 176.748 178.024 176.471C178.397 176.184 178.583 175.806 178.583 175.337V175.273C178.583 174.634 178.338 174.144 177.848 173.803C177.358 173.462 176.73 173.291 175.963 173.291C175.121 173.291 174.434 173.478 173.901 173.851C173.379 174.213 173.065 174.772 172.958 175.529H164.84C164.947 174.037 165.421 172.663 166.263 171.406C167.115 170.138 168.356 169.126 169.986 168.37C171.616 167.603 173.651 167.219 176.09 167.219C177.848 167.219 179.425 167.427 180.82 167.842C182.216 168.247 183.404 168.817 184.384 169.552C185.364 170.277 186.11 171.129 186.621 172.109C187.143 173.078 187.404 174.133 187.404 175.273V192.084H179.159V188.632H178.967C178.477 189.549 177.88 190.289 177.177 190.854C176.485 191.418 175.691 191.828 174.796 192.084C173.912 192.34 172.937 192.468 171.872 192.468ZM174.748 186.906C175.419 186.906 176.048 186.768 176.634 186.491C177.23 186.214 177.715 185.815 178.088 185.293C178.461 184.77 178.647 184.137 178.647 183.391V181.345C178.413 181.441 178.162 181.532 177.896 181.617C177.64 181.702 177.363 181.782 177.065 181.857C176.778 181.931 176.469 182.001 176.138 182.065C175.819 182.128 175.483 182.187 175.132 182.24C174.45 182.347 173.89 182.523 173.454 182.768C173.028 183.002 172.708 183.295 172.495 183.647C172.292 183.987 172.191 184.371 172.191 184.797C172.191 185.479 172.431 186.001 172.91 186.363C173.39 186.725 174.002 186.906 174.748 186.906Z" fill="#0C68A6"/>
<path d="M190.269 192.084V167.539H198.834V172.205H199.09C199.538 170.479 200.246 169.217 201.215 168.418C202.196 167.618 203.341 167.219 204.651 167.219C205.035 167.219 205.413 167.251 205.786 167.315C206.169 167.368 206.537 167.448 206.888 167.555V175.081C206.452 174.932 205.914 174.82 205.274 174.746C204.635 174.671 204.087 174.634 203.628 174.634C202.765 174.634 201.988 174.831 201.295 175.225C200.614 175.609 200.076 176.152 199.681 176.855C199.287 177.547 199.09 178.362 199.09 179.3V192.084H190.269Z" fill="#0C68A6"/>
<path d="M216.357 186.267L216.421 175.784H217.571L223.516 167.539H233.424L223.452 180.387H220.959L216.357 186.267ZM208.431 192.084V159.357H217.252V192.084H208.431ZM223.58 192.084L217.955 182.368L223.708 176.104L233.679 192.084H223.58Z" fill="#0C68A6"/>
<path d="M190.108 65.9051L206.176 81.9731L164.752 123.398L164.751 123.4L162.29 125.861C161.973 126.178 161.589 126.42 161.166 126.569L142.608 133.106C140.232 133.943 137.944 131.656 138.781 129.28L145.319 110.722C145.468 110.299 145.709 109.914 146.026 109.597L189.923 65.6993C189.98 65.7697 190.042 65.8394 190.108 65.9051ZM148.331 113.383C148.071 113.123 147.629 113.224 147.506 113.571L142.53 127.699C142.167 128.728 143.158 129.719 144.188 129.357L158.315 124.38C158.662 124.258 158.763 123.815 158.503 123.554L148.331 113.383ZM213.975 64.2761C216.708 67.0098 216.708 71.442 213.975 74.1756L209.983 78.1662L193.914 62.0975C193.849 62.0319 193.78 61.9698 193.71 61.9124L197.712 57.9115C200.446 55.1785 204.878 55.1782 207.612 57.9115L213.975 64.2761Z" fill="#0C68A6"/>
</svg>
